<?xml version="1.0" encoding="utf-8"?>
<!-- Generator: Adobe Illustrator 16.0.0, SVG Export Plug-In . SVG Version: 6.00 Build 0)  -->
<!DOCTYPE svg PUBLIC "-//W3C//DTD SVG 1.1//EN" "http://www.w3.org/Graphics/SVG/1.1/DTD/svg11.dtd">
<svg version="1.1" id="图层_1" xmlns="http://www.w3.org/2000/svg" xmlns:xlink="http://www.w3.org/1999/xlink" x="0px" y="0px"
	 width="1027px" height="500px" viewBox="0 0 1027 500" enable-background="new 0 0 1027 500" xml:space="preserve">
<g>
	<title>Layer 1</title>
	<g id="svg_3">
		<rect id="canvas_background" x="-1" y="-1" fill="#ADC7D4" width="1029" height="502"/>
		<g id="canvasGrid" display="none">
			<rect id="svg_2" display="inline" fill="none" width="1027" height="500"/>
		</g>
	</g>
	<g id="svg_4">
		<rect id="svg_77" x="21.052" y="259.796" fill="none" stroke="#000000" stroke-width="1.5" width="978" height="180"/>
		<rect id="svg_76" x="22" y="25" fill="none" stroke="#211A1C" stroke-width="1.5" width="980" height="182"/>
		<rect id="svg_5" x="678.047" y="50.396" fill="#BFBEBE" stroke="#000000" stroke-width="1.5" width="45" height="30"/>
		<rect id="svg_6" x="862.58" y="50.396" fill="#BFBEBE" stroke="#000000" stroke-width="1.5" width="45" height="30"/>
		<rect id="svg_7" x="816.291" y="50.396" fill="#BFBEBE" stroke="#000000" stroke-width="1.5" width="45" height="30"/>
		<rect id="svg_8" x="769.958" y="50.396" fill="#BFBEBE" stroke="#000000" stroke-width="1.5" width="45" height="30"/>
		<rect id="svg_9" x="723.983" y="50.396" fill="#BFBEBE" stroke="#000000" stroke-width="1.5" width="45" height="30"/>
		<rect id="svg_10" x="632.286" y="50.396" fill="#BFBEBE" stroke="#000000" stroke-width="1.5" width="45" height="30"/>
		<rect id="svg_11" x="586.487" y="50.176" fill="#BFBEBE" stroke="#000000" stroke-width="1.5" width="45" height="30"/>
		<rect id="svg_12" x="540.293" y="50" fill="#BFBEBE" stroke="#000000" stroke-width="1.5" width="45" height="30"/>
		<rect id="svg_13" x="494.231" y="50" fill="#BFBEBE" stroke="#000000" stroke-width="1.5" width="44.999" height="30"/>
		<rect id="svg_14" x="448.192" y="50" fill="#BFBEBE" stroke="#000000" stroke-width="1.5" width="45" height="30"/>
		<rect id="svg_15" x="402.192" y="50" fill="#BFBEBE" stroke="#000000" stroke-width="1.5" width="45" height="30"/>
		<rect id="svg_16" x="356.308" y="50" fill="#BFBEBE" stroke="#000000" stroke-width="1.5" width="45" height="30"/>
		<rect id="svg_17" x="310.539" y="50" fill="#BFBEBE" stroke="#000000" stroke-width="1.5" width="45" height="30"/>
		<rect id="svg_18" x="173.385" y="50" fill="#BFBEBE" stroke="#000000" stroke-width="1.5" width="45" height="30"/>
		<rect id="svg_19" x="127.77" y="50" fill="#BFBEBE" stroke="#000000" stroke-width="1.5" width="45" height="30"/>
		<rect id="svg_1" x="83" y="50" fill="#BFBEBE" stroke="#000000" stroke-width="1.5" width="45" height="30"/>
		<rect id="svg_20" x="264.616" y="50" fill="#BFBEBE" stroke="#000000" stroke-width="1.5" width="45" height="30"/>
		<rect id="svg_21" x="219" y="50" fill="#BFBEBE" stroke="#000000" stroke-width="1.5" width="45" height="30"/>
		<rect id="svg_22" x="83" y="140.196" fill="#BFBEBE" stroke="#000000" stroke-width="1.5" width="45" height="30"/>
		<rect id="svg_23" x="679.047" y="140.145" fill="#BFBEBE" stroke="#000000" stroke-width="1.5" width="45" height="30"/>
		<rect id="svg_24" x="863.58" y="140.145" fill="#BFBEBE" stroke="#000000" stroke-width="1.5" width="45" height="30"/>
		<rect id="svg_25" x="817.291" y="140.145" fill="#BFBEBE" stroke="#000000" stroke-width="1.5" width="45" height="30"/>
		<rect id="svg_26" x="770.958" y="140.145" fill="#BFBEBE" stroke="#000000" stroke-width="1.5" width="45" height="30"/>
		<rect id="svg_27" x="724.983" y="140.145" fill="#BFBEBE" stroke="#000000" stroke-width="1.5" width="45" height="30"/>
		<rect id="svg_28" x="633.286" y="140.145" fill="#BFBEBE" stroke="#000000" stroke-width="1.5" width="45" height="30"/>
		<rect id="svg_29" x="587.487" y="140.149" fill="#BFBEBE" stroke="#000000" stroke-width="1.5" width="45" height="30"/>
		<rect id="svg_30" x="541.293" y="140.196" fill="#BFBEBE" stroke="#000000" stroke-width="1.5" width="45" height="30"/>
		<rect id="svg_31" x="495.231" y="140.196" fill="#BFBEBE" stroke="#000000" stroke-width="1.5" width="45" height="30"/>
		<rect id="svg_32" x="449.192" y="140.196" fill="#BFBEBE" stroke="#000000" stroke-width="1.5" width="45" height="30"/>
		<rect id="svg_33" x="403.192" y="140.196" fill="#BFBEBE" stroke="#000000" stroke-width="1.5" width="45" height="30"/>
		<rect id="svg_34" x="357.308" y="140.196" fill="#BFBEBE" stroke="#000000" stroke-width="1.5" width="45" height="30"/>
		<rect id="svg_35" x="311.539" y="140.196" fill="#BFBEBE" stroke="#000000" stroke-width="1.5" width="45" height="30"/>
		<rect id="svg_36" x="174.385" y="140.196" fill="#BFBEBE" stroke="#000000" stroke-width="1.5" width="45" height="30"/>
		<rect id="svg_37" x="128.77" y="140.196" fill="#BFBEBE" stroke="#000000" stroke-width="1.5" width="45" height="30"/>
		<rect id="svg_38" x="265.616" y="140.196" fill="#BFBEBE" stroke="#000000" stroke-width="1.5" width="45" height="30"/>
		<rect id="svg_39" x="220" y="140.196" fill="#BFBEBE" stroke="#000000" stroke-width="1.5" width="45" height="30"/>
		<rect id="svg_40" x="92" y="375.274" fill="#8FCD4C" stroke="#000000" stroke-width="1.5" width="45" height="30"/>
		<rect id="svg_41" x="688.047" y="375.67" fill="#8FCD4C" stroke="#000000" stroke-width="1.5" width="45" height="30"/>
		<rect id="svg_42" x="872.32" y="374.93" fill="#8FCD4C" stroke="#000000" stroke-width="1.5" width="45" height="30"/>
		<rect id="svg_43" x="826.291" y="375.67" fill="#8FCD4C" stroke="#000000" stroke-width="1.5" width="45" height="30"/>
		<rect id="svg_44" x="779.958" y="375.67" fill="#8FCD4C" stroke="#000000" stroke-width="1.5" width="45" height="30"/>
		<rect id="svg_45" x="733.983" y="375.67" fill="#8FCD4C" stroke="#000000" stroke-width="1.5" width="45" height="30"/>
		<rect id="svg_46" x="642.286" y="375.67" fill="#8FCD4C" stroke="#000000" stroke-width="1.5" width="45" height="30"/>
		<rect id="svg_47" x="596.487" y="375.451" fill="#8FCD4C" stroke="#000000" stroke-width="1.5" width="45" height="30"/>
		<rect id="svg_48" x="550.293" y="375.274" fill="#8FCD4C" stroke="#000000" stroke-width="1.5" width="45" height="30"/>
		<rect id="svg_49" x="504.231" y="375.274" fill="#8FCD4C" stroke="#000000" stroke-width="1.5" width="45" height="30"/>
		<rect id="svg_50" x="458.192" y="375.274" fill="#8FCD4C" stroke="#000000" stroke-width="1.5" width="45" height="30"/>
		<rect id="svg_51" x="412.192" y="375.274" fill="#8FCD4C" stroke="#000000" stroke-width="1.5" width="45" height="30"/>
		<rect id="svg_52" x="366.308" y="375.274" fill="#8FCD4C" stroke="#000000" stroke-width="1.5" width="45" height="30"/>
		<rect id="svg_53" x="320.539" y="375.274" fill="#8FCD4C" stroke="#000000" stroke-width="1.5" width="45" height="30"/>
		<rect id="svg_54" x="183.385" y="375.274" fill="#8FCD4C" stroke="#000000" stroke-width="1.5" width="45" height="30"/>
		<rect id="svg_55" x="137.77" y="375.274" fill="#8FCD4C" stroke="#000000" stroke-width="1.5" width="45" height="30"/>
		<rect id="svg_56" x="274.616" y="375.274" fill="#8FCD4C" stroke="#000000" stroke-width="1.5" width="45" height="30"/>
		<rect id="svg_57" x="229" y="375.274" fill="#8FCD4C" stroke="#000000" stroke-width="1.5" width="45" height="30"/>
		<rect id="svg_58" x="92" y="287.255" fill="#8FCD4C" stroke="#000000" stroke-width="1.5" width="45" height="30"/>
		<rect id="svg_59" x="688.047" y="287.446" fill="#8FCD4C" stroke="#000000" stroke-width="1.5" width="45" height="30"/>
		<rect id="svg_60" x="872.58" y="287.446" fill="#8FCD4C" stroke="#000000" stroke-width="1.5" width="45" height="30"/>
		<rect id="svg_61" x="826.291" y="287.446" fill="#8FCD4C" stroke="#000000" stroke-width="1.5" width="45" height="30"/>
		<rect id="svg_62" x="779.958" y="287.446" fill="#8FCD4C" stroke="#000000" stroke-width="1.5" width="45" height="30"/>
		<rect id="svg_63" x="733.983" y="287.446" fill="#8FCD4C" stroke="#000000" stroke-width="1.5" width="45" height="30"/>
		<rect id="svg_64" x="642.286" y="287.446" fill="#8FCD4C" stroke="#000000" stroke-width="1.5" width="45" height="30"/>
		<rect id="svg_65" x="596.487" y="287.432" fill="#8FCD4C" stroke="#000000" stroke-width="1.5" width="45" height="30"/>
		<rect id="svg_66" x="550.293" y="287.255" fill="#8FCD4C" stroke="#000000" stroke-width="1.5" width="45" height="30"/>
		<rect id="svg_67" x="504.231" y="287.255" fill="#8FCD4C" stroke="#000000" stroke-width="1.5" width="45" height="30"/>
		<rect id="svg_68" x="458.192" y="287.255" fill="#8FCD4C" stroke="#000000" stroke-width="1.5" width="45" height="30"/>
		<rect id="svg_69" x="412.192" y="287.255" fill="#8FCD4C" stroke="#000000" stroke-width="1.5" width="45" height="30"/>
		<rect id="svg_70" x="366.308" y="287.255" fill="#8FCD4C" stroke="#000000" stroke-width="1.5" width="45" height="30"/>
		<rect id="svg_71" x="320.539" y="287.255" fill="#8FCD4C" stroke="#000000" stroke-width="1.5" width="45" height="30"/>
		<rect id="svg_72" x="183.385" y="287.255" fill="#8FCD4C" stroke="#000000" stroke-width="1.5" width="45" height="30"/>
		<rect id="svg_73" x="137.77" y="287.255" fill="#8FCD4C" stroke="#000000" stroke-width="1.5" width="45" height="30"/>
		<rect id="svg_74" x="274.616" y="287.255" fill="#8FCD4C" stroke="#000000" stroke-width="1.5" width="45" height="30"/>
		<rect id="svg_75" x="229" y="287.255" fill="#8FCD4C" stroke="#000000" stroke-width="1.5" width="45" height="30"/>
		<rect id="svg_78" x="988.088" y="61.765" fill="#3266FF" stroke="#000000" stroke-width="1.5" width="30.393" height="98.039"/>
		<rect id="svg_81" x="986.088" y="303.922" fill="#3266FF" stroke="#000000" stroke-width="1.5" width="30.393" height="98.039"/>
		<rect id="svg_79" x="92" y="281" fill="#5C5B5B" stroke="#211A1C" stroke-width="1.5" width="825.581" height="5"/>
		<rect id="svg_80" x="92" y="318.037" fill="#7F7F7F" stroke="#211A1C" stroke-width="1.5" width="825.581" height="5"/>
		<rect id="svg_82" x="92" y="369.398" fill="#5C5B5B" stroke="#211A1C" stroke-width="1.5" width="825.331" height="5"/>
		<rect id="svg_83" x="92" y="406.186" fill="#5C5B5B" stroke="#211A1C" stroke-width="1.5" width="825.331" height="5"/>
		<rect id="svg_84" x="83.028" y="171.511" fill="#5C5B5B" stroke="#211A1C" stroke-width="1.5" width="825.581" height="5"/>
		<rect id="svg_85" x="83" y="133.726" fill="#5C5B5B" stroke="#211A1C" stroke-width="1.5" width="825.582" height="5"/>
		<rect id="svg_86" x="82.992" y="81" fill="#5C5B5B" stroke="#211A1C" stroke-width="1.5" width="825.582" height="5"/>
		<rect id="svg_87" x="82.992" y="43.963" fill="#5C5B5B" stroke="#211A1C" stroke-width="1.5" width="825.582" height="5"/>
		<rect id="svg_88" x="47.577" y="278.882" fill="#FFFFFF" stroke="#000000" stroke-width="1.5" width="40" height="10"/>
		<rect id="svg_89" x="62.755" y="289.357" fill="#FFFFFF" stroke="#000000" stroke-width="1.5" width="10" height="27.522"/>
		<rect id="svg_90" x="48" y="316.174" fill="#FEFF00" stroke="#000000" stroke-width="1.5" width="40" height="10"/>
		<rect id="svg_97" x="47.577" y="366.882" fill="#FFFFFF" stroke="#000000" stroke-width="1.5" width="40" height="10"/>
		<rect id="svg_98" x="62.755" y="377.357" fill="#FFFFFF" stroke="#000000" stroke-width="1.5" width="10" height="27.522"/>
		<rect id="svg_99" x="48" y="404.174" fill="#FEFF00" stroke="#000000" stroke-width="1.5" width="40" height="10"/>
		<rect id="svg_100" x="921.577" y="366.882" fill="#FEFF00" stroke="#000000" stroke-width="1.5" width="40" height="10"/>
		<rect id="svg_101" x="936.755" y="377.357" fill="#FFFFFF" stroke="#000000" stroke-width="1.5" width="10" height="27.523"/>
		<rect id="svg_102" x="922.001" y="404.174" fill="#FFFFFF" stroke="#000000" stroke-width="1.5" width="40" height="10"/>
		<rect id="svg_103" x="922.577" y="277.882" fill="#FFFFFF" stroke="#000000" stroke-width="1.5" width="40" height="10"/>
		<rect id="svg_104" x="937.756" y="288.357" fill="#FFFFFF" stroke="#000000" stroke-width="1.5" width="10" height="27.523"/>
		<rect id="svg_105" x="923.001" y="315.174" fill="#FEFF00" stroke="#000000" stroke-width="1.5" width="40" height="10"/>
		<path id="svg_106" fill="#437DBA" stroke="#000000" stroke-width="1.5" d="M947.764,347.021l-2.673-4.122v7.97v7.971h-1.654
			h-1.654v-7.879c0-4.333-0.084-7.879-0.187-7.879s-1.305,1.726-2.673,3.834l-2.486,3.834v-3.544v-3.544l3.504-5.41l3.503-5.412
			l3.497,5.422l3.496,5.422v3.73v3.73L947.764,347.021L947.764,347.021z"/>
		<path id="svg_108" fill="#FFFFFF" stroke="#000000" stroke-width="1.5" d="M51.131,307.637c-1.036-1.027-2.978,0.086-3.212-1.788
			c-0.451-1.665,0.926-2.965,1.843-3.974c1.603-0.939,3.452-1.053,5.186-1.484c2.078-0.354,4.241-0.657,6.032-2.066
			c2.04-1.501,4.312-2.751,6.77-2.729c3.386-0.139,6.889-0.005,10.02,1.697c1.968,1.045,4.082,1.576,6.182,2.087
			c1.787,0.276,1.372,2.544,1.966,3.942c0.454,1.605-0.527,3.203-1.963,3.255c-1.518,0.405-3.294,0.446-4.354,2.005
			c-1.085,1.414-3.035,1.365-4.14,0.014c-0.457-0.333-0.762-1.142-1.371-1.002c-5.675,0.036-11.352-0.096-17.024,0.119
			c-1.482-0.139-2.098,2.025-3.674,1.875C52.583,309.617,51.819,308.083,51.131,307.637L51.131,307.637z"/>
		<path id="svg_111" fill="#FFFFFF" stroke="#000000" stroke-width="1.5" d="M98.381,307.387c-1.036-1.027-2.978,0.086-3.212-1.788
			c-0.451-1.665,0.926-2.965,1.843-3.974c1.603-0.939,3.452-1.053,5.186-1.484c2.078-0.354,4.241-0.657,6.032-2.066
			c2.04-1.501,4.312-2.751,6.77-2.729c3.386-0.139,6.889-0.005,10.02,1.697c1.968,1.045,4.082,1.576,6.182,2.087
			c1.787,0.276,1.372,2.544,1.966,3.942c0.454,1.605-0.527,3.203-1.963,3.255c-1.518,0.405-3.294,0.446-4.354,2.005
			c-1.085,1.414-3.035,1.365-4.14,0.014c-0.457-0.333-0.762-1.142-1.371-1.002c-5.675,0.036-11.352-0.096-17.024,0.119
			c-1.482-0.139-2.098,2.025-3.674,1.875C99.833,309.367,99.069,307.833,98.381,307.387L98.381,307.387z"/>
		<path id="svg_112" fill="#FFFFFF" stroke="#000000" stroke-width="1.5" d="M143.381,307.387c-1.036-1.027-2.978,0.086-3.212-1.788
			c-0.451-1.665,0.927-2.965,1.843-3.974c1.604-0.939,3.452-1.053,5.186-1.484c2.078-0.354,4.241-0.657,6.032-2.066
			c2.04-1.501,4.312-2.751,6.77-2.729c3.386-0.139,6.889-0.005,10.02,1.697c1.968,1.045,4.082,1.576,6.182,2.087
			c1.787,0.276,1.372,2.544,1.966,3.942c0.454,1.605-0.527,3.203-1.962,3.255c-1.518,0.405-3.294,0.446-4.354,2.005
			c-1.085,1.414-3.034,1.365-4.14,0.014c-0.457-0.333-0.762-1.142-1.371-1.002c-5.675,0.036-11.352-0.096-17.024,0.119
			c-1.482-0.139-2.098,2.025-3.674,1.875C144.833,309.367,144.069,307.833,143.381,307.387L143.381,307.387z"/>
		<path id="svg_113" fill="#FFFFFF" stroke="#000000" stroke-width="1.5" d="M189.381,307.387c-1.036-1.027-2.978,0.086-3.212-1.788
			c-0.451-1.665,0.926-2.965,1.843-3.974c1.603-0.939,3.452-1.053,5.186-1.484c2.078-0.354,4.241-0.657,6.032-2.066
			c2.04-1.501,4.312-2.751,6.769-2.729c3.386-0.139,6.89-0.005,10.02,1.697c1.968,1.045,4.082,1.576,6.183,2.087
			c1.787,0.276,1.371,2.544,1.965,3.942c0.454,1.605-0.527,3.203-1.962,3.255c-1.518,0.405-3.294,0.446-4.354,2.005
			c-1.085,1.414-3.035,1.365-4.14,0.014c-0.457-0.333-0.762-1.142-1.371-1.002c-5.674,0.036-11.352-0.096-17.024,0.119
			c-1.482-0.139-2.098,2.025-3.674,1.875C190.834,309.367,190.069,307.833,189.381,307.387L189.381,307.387z"/>
		<path id="svg_114" fill="#FFFFFF" stroke="#000000" stroke-width="1.5" d="M235.381,307.387c-1.036-1.027-2.978,0.086-3.212-1.788
			c-0.451-1.665,0.926-2.965,1.843-3.974c1.603-0.939,3.452-1.053,5.186-1.484c2.078-0.354,4.241-0.657,6.032-2.066
			c2.04-1.501,4.312-2.751,6.77-2.729c3.386-0.139,6.889-0.005,10.02,1.697c1.968,1.045,4.082,1.576,6.182,2.087
			c1.787,0.276,1.371,2.544,1.966,3.942c0.454,1.605-0.527,3.203-1.963,3.255c-1.518,0.405-3.294,0.446-4.354,2.005
			c-1.085,1.414-3.035,1.365-4.14,0.014c-0.457-0.333-0.762-1.142-1.371-1.002c-5.674,0.036-11.352-0.096-17.024,0.119
			c-1.482-0.139-2.098,2.025-3.674,1.875C236.834,309.367,236.069,307.833,235.381,307.387L235.381,307.387z"/>
		<path id="svg_115" fill="#FFFFFF" stroke="#000000" stroke-width="1.5" d="M280.381,307.387c-1.036-1.027-2.978,0.086-3.212-1.788
			c-0.451-1.665,0.926-2.965,1.843-3.974c1.603-0.939,3.452-1.053,5.186-1.484c2.078-0.354,4.241-0.657,6.032-2.066
			c2.04-1.501,4.312-2.751,6.77-2.729c3.386-0.139,6.89-0.005,10.02,1.697c1.968,1.045,4.083,1.576,6.183,2.087
			c1.787,0.276,1.371,2.544,1.966,3.942c0.454,1.605-0.527,3.203-1.963,3.255c-1.518,0.405-3.294,0.446-4.354,2.005
			c-1.086,1.414-3.035,1.365-4.141,0.014c-0.457-0.333-0.762-1.142-1.37-1.002c-5.675,0.036-11.352-0.096-17.024,0.119
			c-1.482-0.139-2.098,2.025-3.674,1.875C281.834,309.367,281.07,307.833,280.381,307.387L280.381,307.387z"/>
		<path id="svg_116" fill="#FFFFFF" stroke="#000000" stroke-width="1.5" d="M328.382,307.387c-1.036-1.027-2.978,0.086-3.212-1.788
			c-0.451-1.665,0.926-2.965,1.843-3.974c1.603-0.939,3.451-1.053,5.186-1.484c2.077-0.354,4.24-0.657,6.031-2.066
			c2.04-1.501,4.313-2.751,6.77-2.729c3.386-0.139,6.89-0.005,10.021,1.697c1.968,1.045,4.082,1.576,6.182,2.087
			c1.787,0.276,1.372,2.544,1.966,3.942c0.454,1.605-0.527,3.203-1.963,3.255c-1.518,0.405-3.294,0.446-4.354,2.005
			c-1.086,1.414-3.035,1.365-4.14,0.014c-0.457-0.333-0.763-1.142-1.371-1.002c-5.675,0.036-11.352-0.096-17.024,0.119
			c-1.481-0.139-2.098,2.025-3.674,1.875C329.834,309.367,329.07,307.833,328.382,307.387L328.382,307.387z"/>
		<path id="svg_117" fill="#FFFFFF" stroke="#000000" stroke-width="1.5" d="M372.382,307.387c-1.036-1.027-2.978,0.086-3.212-1.788
			c-0.451-1.665,0.926-2.965,1.843-3.974c1.604-0.939,3.451-1.053,5.186-1.484c2.077-0.354,4.24-0.657,6.031-2.066
			c2.04-1.501,4.313-2.751,6.77-2.729c3.387-0.139,6.89-0.005,10.021,1.697c1.968,1.045,4.082,1.576,6.182,2.087
			c1.787,0.276,1.372,2.544,1.966,3.942c0.454,1.605-0.526,3.203-1.963,3.255c-1.518,0.405-3.294,0.446-4.354,2.005
			c-1.086,1.414-3.034,1.365-4.14,0.014c-0.457-0.333-0.763-1.142-1.371-1.002c-5.675,0.036-11.352-0.096-17.023,0.119
			c-1.482-0.139-2.099,2.025-3.675,1.875C373.834,309.367,373.07,307.833,372.382,307.387L372.382,307.387z"/>
		<path id="svg_118" fill="#FFFFFF" stroke="#000000" stroke-width="1.5" d="M419.382,307.387c-1.035-1.027-2.978,0.086-3.212-1.788
			c-0.451-1.665,0.927-2.965,1.843-3.974c1.604-0.939,3.452-1.053,5.186-1.484c2.077-0.354,4.241-0.657,6.031-2.066
			c2.04-1.501,4.313-2.751,6.77-2.729c3.387-0.139,6.89-0.005,10.021,1.697c1.968,1.045,4.082,1.576,6.183,2.087
			c1.786,0.276,1.371,2.544,1.965,3.942c0.454,1.605-0.526,3.203-1.962,3.255c-1.519,0.405-3.295,0.446-4.354,2.005
			c-1.085,1.414-3.034,1.365-4.14,0.014c-0.457-0.333-0.763-1.142-1.371-1.002c-5.674,0.036-11.352-0.096-17.023,0.119
			c-1.482-0.139-2.098,2.025-3.675,1.875C420.834,309.367,420.07,307.833,419.382,307.387L419.382,307.387z"/>
		<path id="svg_119" fill="#FFFFFF" stroke="#000000" stroke-width="1.5" d="M465.382,307.387c-1.035-1.027-2.978,0.086-3.212-1.788
			c-0.45-1.665,0.927-2.965,1.843-3.974c1.604-0.939,3.452-1.053,5.186-1.484c2.078-0.354,4.241-0.657,6.032-2.066
			c2.039-1.501,4.312-2.751,6.769-2.729c3.387-0.139,6.89-0.005,10.021,1.697c1.968,1.045,4.082,1.576,6.183,2.087
			c1.786,0.276,1.371,2.544,1.966,3.942c0.453,1.605-0.527,3.203-1.963,3.255c-1.519,0.405-3.295,0.446-4.354,2.005
			c-1.085,1.414-3.034,1.365-4.14,0.014c-0.457-0.333-0.762-1.142-1.371-1.002c-5.674,0.036-11.352-0.096-17.023,0.119
			c-1.482-0.139-2.098,2.025-3.675,1.875C466.835,309.367,466.07,307.833,465.382,307.387L465.382,307.387z"/>
		<path id="svg_120" fill="#FFFFFF" stroke="#000000" stroke-width="1.5" d="M511.382,307.387c-1.035-1.027-2.978,0.086-3.212-1.788
			c-0.45-1.665,0.927-2.965,1.843-3.974c1.604-0.939,3.452-1.053,5.186-1.484c2.078-0.354,4.241-0.657,6.032-2.066
			c2.04-1.501,4.312-2.751,6.77-2.729c3.386-0.139,6.889-0.005,10.02,1.697c1.968,1.045,4.082,1.576,6.183,2.087
			c1.787,0.276,1.371,2.544,1.966,3.942c0.453,1.605-0.527,3.203-1.963,3.255c-1.518,0.405-3.295,0.446-4.354,2.005
			c-1.085,1.414-3.034,1.365-4.14,0.014c-0.457-0.333-0.762-1.142-1.37-1.002c-5.675,0.036-11.353-0.096-17.024,0.119
			c-1.482-0.139-2.098,2.025-3.675,1.875C512.835,309.367,512.07,307.833,511.382,307.387L511.382,307.387z"/>
		<path id="svg_121" fill="#FFFFFF" stroke="#000000" stroke-width="1.5" d="M557.383,307.387c-1.036-1.027-2.979,0.086-3.213-1.788
			c-0.45-1.665,0.927-2.965,1.843-3.974c1.604-0.939,3.452-1.053,5.186-1.484c2.078-0.354,4.241-0.657,6.032-2.066
			c2.04-1.501,4.312-2.751,6.77-2.729c3.386-0.139,6.889-0.005,10.02,1.697c1.968,1.045,4.082,1.576,6.183,2.087
			c1.787,0.276,1.371,2.544,1.966,3.942c0.453,1.605-0.527,3.203-1.963,3.255c-1.518,0.405-3.294,0.446-4.354,2.005
			c-1.086,1.414-3.035,1.365-4.141,0.014c-0.457-0.333-0.762-1.142-1.37-1.002c-5.675,0.036-11.353-0.096-17.024,0.119
			c-1.482-0.139-2.098,2.025-3.674,1.875C558.835,309.367,558.07,307.833,557.383,307.387L557.383,307.387z"/>
		<path id="svg_122" fill="#FFFFFF" stroke="#000000" stroke-width="1.5" d="M603.383,307.387c-1.036-1.027-2.979,0.086-3.212-1.788
			c-0.451-1.665,0.926-2.965,1.843-3.974c1.603-0.939,3.451-1.053,5.186-1.484c2.077-0.354,4.24-0.657,6.031-2.066
			c2.04-1.501,4.312-2.751,6.77-2.729c3.386-0.139,6.89-0.005,10.02,1.697c1.969,1.045,4.082,1.576,6.183,2.087
			c1.787,0.276,1.371,2.544,1.966,3.942c0.454,1.605-0.527,3.203-1.963,3.255c-1.518,0.405-3.294,0.446-4.354,2.005
			c-1.086,1.414-3.035,1.365-4.141,0.014c-0.457-0.333-0.762-1.142-1.37-1.002c-5.675,0.036-11.353-0.096-17.024,0.119
			c-1.482-0.139-2.098,2.025-3.674,1.875C604.835,309.367,604.07,307.833,603.383,307.387L603.383,307.387z"/>
		<path id="svg_123" fill="#FFFFFF" stroke="#000000" stroke-width="1.5" d="M649.383,307.387c-1.036-1.027-2.978,0.086-3.212-1.788
			c-0.451-1.665,0.926-2.965,1.843-3.974c1.603-0.939,3.451-1.053,5.186-1.484c2.077-0.354,4.24-0.657,6.031-2.066
			c2.04-1.501,4.313-2.751,6.77-2.729c3.386-0.139,6.89-0.005,10.02,1.697c1.969,1.045,4.083,1.576,6.183,2.087
			c1.787,0.276,1.372,2.544,1.966,3.942c0.454,1.605-0.527,3.203-1.963,3.255c-1.518,0.405-3.294,0.446-4.354,2.005
			c-1.086,1.414-3.035,1.365-4.141,0.014c-0.456-0.333-0.762-1.142-1.37-1.002c-5.675,0.036-11.353-0.096-17.024,0.119
			c-1.481-0.139-2.098,2.025-3.674,1.875C650.835,309.367,650.07,307.833,649.383,307.387L649.383,307.387z"/>
		<path id="svg_124" fill="#FFFFFF" stroke="#000000" stroke-width="1.5" d="M649.383,307.387c-1.036-1.027-2.978,0.086-3.212-1.788
			c-0.451-1.665,0.926-2.965,1.843-3.974c1.603-0.939,3.451-1.053,5.186-1.484c2.077-0.354,4.24-0.657,6.031-2.066
			c2.04-1.501,4.313-2.751,6.77-2.729c3.386-0.139,6.89-0.005,10.02,1.697c1.969,1.045,4.083,1.576,6.183,2.087
			c1.787,0.276,1.372,2.544,1.966,3.942c0.454,1.605-0.527,3.203-1.963,3.255c-1.518,0.405-3.294,0.446-4.354,2.005
			c-1.086,1.414-3.035,1.365-4.141,0.014c-0.456-0.333-0.762-1.142-1.37-1.002c-5.675,0.036-11.353-0.096-17.024,0.119
			c-1.481-0.139-2.098,2.025-3.674,1.875C650.835,309.367,650.07,307.833,649.383,307.387L649.383,307.387z"/>
		<path id="svg_125" fill="#FFFFFF" stroke="#000000" stroke-width="1.5" d="M695.383,307.387c-1.036-1.027-2.978,0.086-3.212-1.788
			c-0.451-1.665,0.927-2.965,1.843-3.974c1.604-0.939,3.451-1.053,5.186-1.484c2.077-0.354,4.24-0.657,6.031-2.066
			c2.04-1.501,4.313-2.751,6.77-2.729c3.387-0.139,6.89-0.005,10.021,1.697c1.968,1.045,4.082,1.576,6.182,2.087
			c1.787,0.276,1.372,2.544,1.966,3.942c0.454,1.605-0.526,3.203-1.963,3.255c-1.518,0.405-3.294,0.446-4.354,2.005
			c-1.086,1.414-3.034,1.365-4.14,0.014c-0.457-0.333-0.763-1.142-1.371-1.002c-5.675,0.036-11.352-0.096-17.024,0.119
			c-1.481-0.139-2.098,2.025-3.674,1.875C696.835,309.367,696.071,307.833,695.383,307.387L695.383,307.387z"/>
		<path id="svg_126" fill="#FFFFFF" stroke="#000000" stroke-width="1.5" d="M740.383,307.387c-1.035-1.027-2.978,0.086-3.212-1.788
			c-0.451-1.665,0.927-2.965,1.843-3.974c1.604-0.939,3.452-1.053,5.186-1.484c2.077-0.354,4.24-0.657,6.031-2.066
			c2.04-1.501,4.313-2.751,6.77-2.729c3.387-0.139,6.89-0.005,10.021,1.697c1.968,1.045,4.082,1.576,6.183,2.087
			c1.786,0.276,1.371,2.544,1.965,3.942c0.454,1.605-0.526,3.203-1.962,3.255c-1.519,0.405-3.295,0.446-4.354,2.005
			c-1.085,1.414-3.034,1.365-4.14,0.014c-0.457-0.333-0.763-1.142-1.371-1.002c-5.674,0.036-11.352-0.096-17.023,0.119
			c-1.482-0.139-2.099,2.025-3.675,1.875C741.836,309.367,741.071,307.833,740.383,307.387L740.383,307.387z"/>
		<path id="svg_127" fill="#FFFFFF" stroke="#000000" stroke-width="1.5" d="M786.383,307.387c-1.035-1.027-2.978,0.086-3.212-1.788
			c-0.45-1.665,0.927-2.965,1.843-3.974c1.604-0.939,3.452-1.053,5.186-1.484c2.078-0.354,4.241-0.657,6.032-2.066
			c2.039-1.501,4.312-2.751,6.769-2.729c3.387-0.139,6.89-0.005,10.021,1.697c1.968,1.045,4.082,1.576,6.183,2.087
			c1.786,0.276,1.371,2.544,1.966,3.942c0.453,1.605-0.527,3.203-1.963,3.255c-1.519,0.405-3.295,0.446-4.354,2.005
			c-1.085,1.414-3.034,1.365-4.14,0.014c-0.457-0.333-0.762-1.142-1.371-1.002c-5.674,0.036-11.352-0.096-17.023,0.119
			c-1.482-0.139-2.098,2.025-3.675,1.875C787.836,309.367,787.071,307.833,786.383,307.387L786.383,307.387z"/>
		<path id="svg_128" fill="#FFFFFF" stroke="#000000" stroke-width="1.5" d="M834.383,307.387c-1.035-1.027-2.978,0.086-3.212-1.788
			c-0.45-1.665,0.927-2.965,1.843-3.974c1.604-0.939,3.452-1.053,5.186-1.484c2.078-0.354,4.241-0.657,6.032-2.066
			c2.04-1.501,4.312-2.751,6.77-2.729c3.386-0.139,6.889-0.005,10.02,1.697c1.968,1.045,4.082,1.576,6.183,2.087
			c1.787,0.276,1.371,2.544,1.966,3.942c0.453,1.605-0.527,3.203-1.963,3.255c-1.519,0.405-3.295,0.446-4.354,2.005
			c-1.085,1.414-3.034,1.365-4.14,0.014c-0.457-0.333-0.762-1.142-1.37-1.002c-5.675,0.036-11.353-0.096-17.024,0.119
			c-1.482-0.139-2.098,2.025-3.675,1.875C835.836,309.367,835.071,307.833,834.383,307.387L834.383,307.387z"/>
		<path id="svg_129" fill="#FFFFFF" stroke="#000000" stroke-width="1.5" d="M880.384,307.387c-1.036-1.027-2.979,0.086-3.212-1.788
			c-0.451-1.665,0.926-2.965,1.842-3.974c1.604-0.939,3.452-1.053,5.186-1.484c2.078-0.354,4.241-0.657,6.032-2.066
			c2.04-1.501,4.312-2.751,6.77-2.729c3.386-0.139,6.89-0.005,10.02,1.697c1.968,1.045,4.082,1.576,6.183,2.087
			c1.787,0.276,1.371,2.544,1.966,3.942c0.453,1.605-0.527,3.203-1.963,3.255c-1.518,0.405-3.294,0.446-4.354,2.005
			c-1.085,1.414-3.034,1.365-4.14,0.014c-0.457-0.333-0.762-1.142-1.37-1.002c-5.675,0.036-11.353-0.096-17.024,0.119
			c-1.482-0.139-2.098,2.025-3.674,1.875C881.836,309.367,881.071,307.833,880.384,307.387L880.384,307.387z"/>
		<path id="svg_130" fill="#FFFFFF" stroke="#000000" stroke-width="1.5" d="M928.384,307.387c-1.036-1.027-2.979,0.086-3.212-1.788
			c-0.451-1.665,0.926-2.965,1.843-3.974c1.603-0.939,3.451-1.053,5.185-1.484c2.078-0.354,4.241-0.657,6.032-2.066
			c2.04-1.501,4.312-2.751,6.77-2.729c3.386-0.139,6.89-0.005,10.02,1.697c1.968,1.045,4.083,1.576,6.183,2.087
			c1.787,0.276,1.371,2.544,1.966,3.942c0.454,1.605-0.527,3.203-1.963,3.255c-1.518,0.405-3.294,0.446-4.354,2.005
			c-1.086,1.414-3.035,1.365-4.141,0.014c-0.457-0.333-0.762-1.142-1.37-1.002c-5.675,0.036-11.353-0.096-17.024,0.119
			c-1.481-0.139-2.098,2.025-3.674,1.875C929.836,309.367,929.071,307.833,928.384,307.387L928.384,307.387z"/>
		<path id="svg_131" fill="#FFFFFF" stroke="#000000" stroke-width="1.5" d="M928.384,395.387c-1.036-1.026-2.979,0.086-3.212-1.787
			c-0.451-1.665,0.926-2.966,1.843-3.974c1.603-0.94,3.451-1.054,5.185-1.484c2.078-0.354,4.241-0.658,6.032-2.066
			c2.04-1.502,4.312-2.752,6.77-2.729c3.386-0.139,6.89-0.004,10.02,1.697c1.968,1.045,4.083,1.576,6.183,2.087
			c1.787,0.276,1.371,2.544,1.966,3.942c0.454,1.605-0.527,3.203-1.963,3.255c-1.518,0.406-3.294,0.446-4.354,2.005
			c-1.086,1.414-3.035,1.365-4.141,0.015c-0.457-0.334-0.762-1.143-1.37-1.003c-5.675,0.036-11.353-0.096-17.024,0.119
			c-1.481-0.139-2.098,2.025-3.674,1.875C929.836,397.367,929.071,395.834,928.384,395.387L928.384,395.387z"/>
		<path id="svg_132" fill="#FFFFFF" stroke="#000000" stroke-width="1.5" d="M878.384,394.387c-1.036-1.026-2.979,0.086-3.212-1.787
			c-0.451-1.665,0.926-2.966,1.842-3.974c1.604-0.94,3.452-1.054,5.186-1.484c2.078-0.354,4.241-0.658,6.032-2.066
			c2.04-1.502,4.312-2.752,6.77-2.729c3.386-0.139,6.89-0.004,10.02,1.697c1.968,1.045,4.082,1.576,6.183,2.087
			c1.787,0.276,1.371,2.544,1.966,3.942c0.453,1.605-0.527,3.203-1.963,3.255c-1.518,0.406-3.294,0.446-4.354,2.005
			c-1.085,1.414-3.034,1.365-4.14,0.015c-0.457-0.334-0.762-1.143-1.37-1.003c-5.675,0.036-11.353-0.096-17.024,0.119
			c-1.482-0.139-2.098,2.025-3.674,1.875C879.836,396.367,879.071,394.834,878.384,394.387L878.384,394.387z"/>
		<path id="svg_133" fill="#FFFFFF" stroke="#000000" stroke-width="1.5" d="M832.383,394.387c-1.035-1.026-2.978,0.086-3.212-1.787
			c-0.45-1.665,0.927-2.966,1.843-3.974c1.604-0.94,3.452-1.054,5.186-1.484c2.078-0.354,4.241-0.658,6.032-2.066
			c2.04-1.502,4.312-2.752,6.77-2.729c3.386-0.139,6.889-0.004,10.02,1.697c1.968,1.045,4.082,1.576,6.183,2.087
			c1.787,0.276,1.371,2.544,1.966,3.942c0.453,1.605-0.527,3.203-1.963,3.255c-1.519,0.406-3.295,0.446-4.354,2.005
			c-1.085,1.414-3.034,1.365-4.14,0.015c-0.457-0.334-0.762-1.143-1.37-1.003c-5.675,0.036-11.353-0.096-17.024,0.119
			c-1.482-0.139-2.098,2.025-3.675,1.875C833.836,396.367,833.071,394.834,832.383,394.387L832.383,394.387z"/>
		<path id="svg_134" fill="#FFFFFF" stroke="#000000" stroke-width="1.5" d="M786.383,394.387c-1.035-1.026-2.978,0.086-3.212-1.787
			c-0.45-1.665,0.927-2.966,1.843-3.974c1.604-0.94,3.452-1.054,5.186-1.484c2.078-0.354,4.241-0.658,6.032-2.066
			c2.039-1.502,4.312-2.752,6.769-2.729c3.387-0.139,6.89-0.004,10.021,1.697c1.968,1.045,4.082,1.576,6.183,2.087
			c1.786,0.276,1.371,2.544,1.966,3.942c0.453,1.605-0.527,3.203-1.963,3.255c-1.519,0.406-3.295,0.446-4.354,2.005
			c-1.085,1.414-3.034,1.365-4.14,0.015c-0.457-0.334-0.762-1.143-1.371-1.003c-5.674,0.036-11.352-0.096-17.023,0.119
			c-1.482-0.139-2.098,2.025-3.675,1.875C787.836,396.367,787.071,394.834,786.383,394.387L786.383,394.387z"/>
		<path id="svg_135" fill="#FFFFFF" stroke="#000000" stroke-width="1.5" d="M740.383,394.387c-1.035-1.026-2.978,0.086-3.212-1.787
			c-0.451-1.665,0.927-2.966,1.843-3.974c1.604-0.94,3.452-1.054,5.186-1.484c2.077-0.354,4.24-0.658,6.031-2.066
			c2.04-1.502,4.313-2.752,6.77-2.729c3.387-0.139,6.89-0.004,10.021,1.697c1.968,1.045,4.082,1.576,6.183,2.087
			c1.786,0.276,1.371,2.544,1.965,3.942c0.454,1.605-0.526,3.203-1.962,3.255c-1.519,0.406-3.295,0.446-4.354,2.005
			c-1.085,1.414-3.034,1.365-4.14,0.015c-0.457-0.334-0.763-1.143-1.371-1.003c-5.674,0.036-11.352-0.096-17.023,0.119
			c-1.482-0.139-2.099,2.025-3.675,1.875C741.836,396.367,741.071,394.834,740.383,394.387L740.383,394.387z"/>
		<path id="svg_136" fill="#FFFFFF" stroke="#000000" stroke-width="1.5" d="M694.383,394.387c-1.036-1.026-2.978,0.086-3.212-1.787
			c-0.451-1.665,0.927-2.966,1.843-3.974c1.604-0.94,3.451-1.054,5.186-1.484c2.077-0.354,4.24-0.658,6.031-2.066
			c2.04-1.502,4.313-2.752,6.77-2.729c3.387-0.139,6.89-0.004,10.021,1.697c1.968,1.045,4.082,1.576,6.182,2.087
			c1.787,0.276,1.372,2.544,1.966,3.942c0.454,1.605-0.526,3.203-1.963,3.255c-1.518,0.406-3.294,0.446-4.354,2.005
			c-1.086,1.414-3.034,1.365-4.14,0.015c-0.457-0.334-0.763-1.143-1.371-1.003c-5.675,0.036-11.352-0.096-17.024,0.119
			c-1.481-0.139-2.098,2.025-3.674,1.875C695.835,396.367,695.071,394.834,694.383,394.387L694.383,394.387z"/>
		<path id="svg_137" fill="#FFFFFF" stroke="#000000" stroke-width="1.5" d="M650.383,394.387c-1.036-1.026-2.978,0.086-3.212-1.787
			c-0.451-1.665,0.926-2.966,1.843-3.974c1.603-0.94,3.451-1.054,5.186-1.484c2.077-0.354,4.24-0.658,6.031-2.066
			c2.04-1.502,4.313-2.752,6.77-2.729c3.386-0.139,6.89-0.004,10.02,1.697c1.969,1.045,4.083,1.576,6.183,2.087
			c1.787,0.276,1.372,2.544,1.966,3.942c0.454,1.605-0.527,3.203-1.963,3.255c-1.518,0.406-3.294,0.446-4.354,2.005
			c-1.086,1.414-3.035,1.365-4.141,0.015c-0.456-0.334-0.762-1.143-1.37-1.003c-5.675,0.036-11.353-0.096-17.024,0.119
			c-1.481-0.139-2.098,2.025-3.674,1.875C651.835,396.367,651.07,394.834,650.383,394.387L650.383,394.387z"/>
		<path id="svg_138" fill="#FFFFFF" stroke="#000000" stroke-width="1.5" d="M603.383,394.387c-1.036-1.026-2.979,0.086-3.212-1.787
			c-0.451-1.665,0.926-2.966,1.843-3.974c1.603-0.94,3.451-1.054,5.186-1.484c2.077-0.354,4.24-0.658,6.031-2.066
			c2.04-1.502,4.312-2.752,6.77-2.729c3.386-0.139,6.89-0.004,10.02,1.697c1.969,1.045,4.082,1.576,6.183,2.087
			c1.787,0.276,1.371,2.544,1.966,3.942c0.454,1.605-0.527,3.203-1.963,3.255c-1.518,0.406-3.294,0.446-4.354,2.005
			c-1.086,1.414-3.035,1.365-4.141,0.015c-0.457-0.334-0.762-1.143-1.37-1.003c-5.675,0.036-11.353-0.096-17.024,0.119
			c-1.482-0.139-2.098,2.025-3.674,1.875C604.835,396.367,604.07,394.834,603.383,394.387L603.383,394.387z"/>
		<path id="svg_139" fill="#FFFFFF" stroke="#000000" stroke-width="1.5" d="M557.383,394.387c-1.036-1.026-2.979,0.086-3.213-1.787
			c-0.45-1.665,0.927-2.966,1.843-3.974c1.604-0.94,3.452-1.054,5.186-1.484c2.078-0.354,4.241-0.658,6.032-2.066
			c2.04-1.502,4.312-2.752,6.77-2.729c3.386-0.139,6.889-0.004,10.02,1.697c1.968,1.045,4.082,1.576,6.183,2.087
			c1.787,0.276,1.371,2.544,1.966,3.942c0.453,1.605-0.527,3.203-1.963,3.255c-1.518,0.406-3.294,0.446-4.354,2.005
			c-1.086,1.414-3.035,1.365-4.141,0.015c-0.457-0.334-0.762-1.143-1.37-1.003c-5.675,0.036-11.353-0.096-17.024,0.119
			c-1.482-0.139-2.098,2.025-3.674,1.875C558.835,396.367,558.07,394.834,557.383,394.387L557.383,394.387z"/>
		<path id="svg_140" fill="#FFFFFF" stroke="#000000" stroke-width="1.5" d="M510.382,394.387c-1.035-1.026-2.978,0.086-3.212-1.787
			c-0.45-1.665,0.927-2.966,1.843-3.974c1.604-0.94,3.452-1.054,5.186-1.484c2.078-0.354,4.241-0.658,6.032-2.066
			c2.04-1.502,4.312-2.752,6.77-2.729c3.386-0.139,6.889-0.004,10.02,1.697c1.968,1.045,4.082,1.576,6.183,2.087
			c1.787,0.276,1.371,2.544,1.966,3.942c0.453,1.605-0.527,3.203-1.963,3.255c-1.518,0.406-3.295,0.446-4.354,2.005
			c-1.085,1.414-3.034,1.365-4.14,0.015c-0.457-0.334-0.762-1.143-1.37-1.003c-5.675,0.036-11.353-0.096-17.024,0.119
			c-1.482-0.139-2.098,2.025-3.675,1.875C511.835,396.367,511.07,394.834,510.382,394.387L510.382,394.387z"/>
		<path id="svg_141" fill="#FFFFFF" stroke="#000000" stroke-width="1.5" d="M465.382,394.387c-1.035-1.026-2.978,0.086-3.212-1.787
			c-0.45-1.665,0.927-2.966,1.843-3.974c1.604-0.94,3.452-1.054,5.186-1.484c2.078-0.354,4.241-0.658,6.032-2.066
			c2.039-1.502,4.312-2.752,6.769-2.729c3.387-0.139,6.89-0.004,10.021,1.697c1.968,1.045,4.082,1.576,6.183,2.087
			c1.786,0.276,1.371,2.544,1.966,3.942c0.453,1.605-0.527,3.203-1.963,3.255c-1.519,0.406-3.295,0.446-4.354,2.005
			c-1.085,1.414-3.034,1.365-4.14,0.015c-0.457-0.334-0.762-1.143-1.371-1.003c-5.674,0.036-11.352-0.096-17.023,0.119
			c-1.482-0.139-2.098,2.025-3.675,1.875C466.835,396.367,466.07,394.834,465.382,394.387L465.382,394.387z"/>
		<path id="svg_142" fill="#FFFFFF" stroke="#000000" stroke-width="1.5" d="M419.382,394.387c-1.035-1.026-2.978,0.086-3.212-1.787
			c-0.451-1.665,0.927-2.966,1.843-3.974c1.604-0.94,3.452-1.054,5.186-1.484c2.077-0.354,4.241-0.658,6.031-2.066
			c2.04-1.502,4.313-2.752,6.77-2.729c3.387-0.139,6.89-0.004,10.021,1.697c1.968,1.045,4.082,1.576,6.183,2.087
			c1.786,0.276,1.371,2.544,1.965,3.942c0.454,1.605-0.526,3.203-1.962,3.255c-1.519,0.406-3.295,0.446-4.354,2.005
			c-1.085,1.414-3.034,1.365-4.14,0.015c-0.457-0.334-0.763-1.143-1.371-1.003c-5.674,0.036-11.352-0.096-17.023,0.119
			c-1.482-0.139-2.098,2.025-3.675,1.875C420.834,396.367,420.07,394.834,419.382,394.387L419.382,394.387z"/>
		<path id="svg_143" fill="#FFFFFF" stroke="#000000" stroke-width="1.5" d="M372.382,394.387c-1.036-1.026-2.978,0.086-3.212-1.787
			c-0.451-1.665,0.926-2.966,1.843-3.974c1.604-0.94,3.451-1.054,5.186-1.484c2.077-0.354,4.24-0.658,6.031-2.066
			c2.04-1.502,4.313-2.752,6.77-2.729c3.387-0.139,6.89-0.004,10.021,1.697c1.968,1.045,4.082,1.576,6.182,2.087
			c1.787,0.276,1.372,2.544,1.966,3.942c0.454,1.605-0.526,3.203-1.963,3.255c-1.518,0.406-3.294,0.446-4.354,2.005
			c-1.086,1.414-3.034,1.365-4.14,0.015c-0.457-0.334-0.763-1.143-1.371-1.003c-5.675,0.036-11.352-0.096-17.023,0.119
			c-1.482-0.139-2.099,2.025-3.675,1.875C373.834,396.367,373.07,394.834,372.382,394.387L372.382,394.387z"/>
		<path id="svg_144" fill="#FFFFFF" stroke="#000000" stroke-width="1.5" d="M327.382,394.387c-1.036-1.026-2.978,0.086-3.212-1.787
			c-0.451-1.665,0.926-2.966,1.843-3.974c1.603-0.94,3.451-1.054,5.186-1.484c2.077-0.354,4.24-0.658,6.031-2.066
			c2.04-1.502,4.313-2.752,6.77-2.729c3.386-0.139,6.89-0.004,10.021,1.697c1.968,1.045,4.082,1.576,6.182,2.087
			c1.787,0.276,1.372,2.544,1.966,3.942c0.454,1.605-0.527,3.203-1.963,3.255c-1.518,0.406-3.294,0.446-4.354,2.005
			c-1.086,1.414-3.035,1.365-4.14,0.015c-0.457-0.334-0.763-1.143-1.371-1.003c-5.675,0.036-11.352-0.096-17.024,0.119
			c-1.481-0.139-2.098,2.025-3.674,1.875C328.834,396.367,328.069,394.834,327.382,394.387L327.382,394.387z"/>
		<path id="svg_145" fill="#FFFFFF" stroke="#000000" stroke-width="1.5" d="M281.381,394.387c-1.036-1.026-2.978,0.086-3.212-1.787
			c-0.451-1.665,0.926-2.966,1.843-3.974c1.603-0.94,3.452-1.054,5.186-1.484c2.078-0.354,4.241-0.658,6.032-2.066
			c2.04-1.502,4.312-2.752,6.77-2.729c3.386-0.139,6.89-0.004,10.02,1.697c1.968,1.045,4.083,1.576,6.183,2.087
			c1.787,0.276,1.371,2.544,1.966,3.942c0.454,1.605-0.527,3.203-1.963,3.255c-1.518,0.406-3.294,0.446-4.354,2.005
			c-1.086,1.414-3.035,1.365-4.141,0.015c-0.457-0.334-0.762-1.143-1.37-1.003c-5.675,0.036-11.352-0.096-17.024,0.119
			c-1.482-0.139-2.098,2.025-3.674,1.875C282.834,396.367,282.07,394.834,281.381,394.387L281.381,394.387z"/>
		<path id="svg_146" fill="#FFFFFF" stroke="#000000" stroke-width="1.5" d="M234.381,394.387c-1.036-1.026-2.978,0.086-3.212-1.787
			c-0.451-1.665,0.926-2.966,1.843-3.974c1.603-0.94,3.452-1.054,5.186-1.484c2.078-0.354,4.241-0.658,6.032-2.066
			c2.04-1.502,4.312-2.752,6.77-2.729c3.386-0.139,6.889-0.004,10.02,1.697c1.968,1.045,4.082,1.576,6.182,2.087
			c1.787,0.276,1.371,2.544,1.966,3.942c0.454,1.605-0.527,3.203-1.963,3.255c-1.518,0.406-3.294,0.446-4.354,2.005
			c-1.085,1.414-3.035,1.365-4.14,0.015c-0.457-0.334-0.762-1.143-1.371-1.003c-5.674,0.036-11.352-0.096-17.024,0.119
			c-1.482-0.139-2.098,2.025-3.674,1.875C235.834,396.367,235.069,394.834,234.381,394.387L234.381,394.387z"/>
		<path id="svg_147" fill="#FFFFFF" stroke="#000000" stroke-width="1.5" d="M191.381,394.387c-1.036-1.026-2.978,0.086-3.212-1.787
			c-0.451-1.665,0.926-2.966,1.843-3.974c1.603-0.94,3.452-1.054,5.186-1.484c2.078-0.354,4.241-0.658,6.032-2.066
			c2.04-1.502,4.312-2.752,6.769-2.729c3.386-0.139,6.89-0.004,10.02,1.697c1.968,1.045,4.082,1.576,6.183,2.087
			c1.787,0.276,1.371,2.544,1.965,3.942c0.454,1.605-0.527,3.203-1.962,3.255c-1.518,0.406-3.294,0.446-4.354,2.005
			c-1.085,1.414-3.035,1.365-4.14,0.015c-0.457-0.334-0.762-1.143-1.371-1.003c-5.674,0.036-11.352-0.096-17.024,0.119
			c-1.482-0.139-2.098,2.025-3.674,1.875C192.834,396.367,192.069,394.834,191.381,394.387L191.381,394.387z"/>
		<path id="svg_148" fill="#FFFFFF" stroke="#000000" stroke-width="1.5" d="M143.381,394.387c-1.036-1.026-2.978,0.086-3.212-1.787
			c-0.451-1.665,0.927-2.966,1.843-3.974c1.604-0.94,3.452-1.054,5.186-1.484c2.078-0.354,4.241-0.658,6.032-2.066
			c2.04-1.502,4.312-2.752,6.77-2.729c3.386-0.139,6.889-0.004,10.02,1.697c1.968,1.045,4.082,1.576,6.182,2.087
			c1.787,0.276,1.372,2.544,1.966,3.942c0.454,1.605-0.527,3.203-1.962,3.255c-1.518,0.406-3.294,0.446-4.354,2.005
			c-1.085,1.414-3.034,1.365-4.14,0.015c-0.457-0.334-0.762-1.143-1.371-1.003c-5.675,0.036-11.352-0.096-17.024,0.119
			c-1.482-0.139-2.098,2.025-3.674,1.875C144.833,396.367,144.069,394.834,143.381,394.387L143.381,394.387z"/>
		<path id="svg_149" fill="#FFFFFF" stroke="#000000" stroke-width="1.5" d="M99.381,394.387c-1.036-1.026-2.978,0.086-3.212-1.787
			c-0.451-1.665,0.926-2.966,1.843-3.974c1.603-0.94,3.452-1.054,5.186-1.484c2.078-0.354,4.241-0.658,6.032-2.066
			c2.04-1.502,4.312-2.752,6.77-2.729c3.386-0.139,6.889-0.004,10.02,1.697c1.968,1.045,4.082,1.576,6.182,2.087
			c1.787,0.276,1.372,2.544,1.966,3.942c0.454,1.605-0.527,3.203-1.963,3.255c-1.518,0.406-3.294,0.446-4.354,2.005
			c-1.085,1.414-3.034,1.365-4.14,0.015c-0.457-0.334-0.762-1.143-1.371-1.003c-5.675,0.036-11.352-0.096-17.024,0.119
			c-1.482-0.139-2.098,2.025-3.674,1.875C100.833,396.367,100.069,394.834,99.381,394.387L99.381,394.387z"/>
		<path id="svg_150" fill="#FFFFFF" stroke="#000000" stroke-width="1.5" d="M50.381,395.387c-1.036-1.026-2.978,0.086-3.212-1.787
			c-0.451-1.665,0.926-2.966,1.843-3.974c1.603-0.94,3.452-1.054,5.186-1.484c2.078-0.354,4.241-0.658,6.032-2.066
			c2.04-1.502,4.312-2.752,6.769-2.729c3.386-0.139,6.89-0.004,10.02,1.697c1.968,1.045,4.083,1.576,6.183,2.087
			c1.787,0.276,1.371,2.544,1.966,3.942c0.454,1.605-0.527,3.203-1.963,3.255c-1.518,0.406-3.294,0.446-4.354,2.005
			c-1.085,1.414-3.035,1.365-4.14,0.015c-0.457-0.334-0.762-1.143-1.371-1.003c-5.674,0.036-11.352-0.096-17.024,0.119
			c-1.482-0.139-2.098,2.025-3.674,1.875C51.833,397.367,51.069,395.834,50.381,395.387L50.381,395.387z"/>
		
			<text id="svg_152" transform="matrix(6.123234e-017 1 -1 6.123234e-017 993.1875 315.3135)" fill="#FFFFFF" font-family="'AdobeSongStd-Light-GBpc-EUC-H'" font-size="24">内饰线</text>
		
			<text id="svg_151" transform="matrix(6.123234e-017 1 -1 6.123234e-017 995.1719 73.2979)" fill="#FFFFFF" font-family="'AdobeSongStd-Light-GBpc-EUC-H'" font-size="24">底盘线</text>
	</g>
	
		<text id="svg_91" transform="matrix(0.8757 0 0 1 127.4897 98.3218)" fill="#FFFFFF" font-family="'AdobeSongStd-Light-GBpc-EUC-H'" font-size="9.8578">装管集安油</text>
</g>
<g id="S1">
	<circle fill="none" stroke="#FF0000" stroke-width="10" cx="22" cy="22" r="1">
	
		<animate  fill="remove" values="1; 20" calcMode="spline" accumulate="none" additive="replace" attributeName="r" repeatCount="indefinite" keySplines="0.165, 0.84, 0.44, 1" dur="1.8s" restart="always" keyTimes="0; 1" begin="0s">
		</animate>
	
		<animate  fill="remove" values="1; 0" calcMode="spline" accumulate="none" additive="replace" attributeName="stroke-opacity" repeatCount="indefinite" keySplines="0.3, 0.61, 0.355, 1" dur="1.8s" restart="always" keyTimes="0; 1" begin="0s">
		</animate>
	</circle>
	<circle fill="none" stroke="#FF0000" stroke-width="10" cx="22" cy="22" r="1">
	
		<animate  fill="remove" values="1; 20" calcMode="spline" accumulate="none" additive="replace" attributeName="r" repeatCount="indefinite" keySplines="0.165, 0.84, 0.44, 1" dur="1.8s" restart="always" keyTimes="0; 1" begin="-0.9s">
		</animate>
	
		<animate  fill="remove" values="1; 0" calcMode="spline" accumulate="none" additive="replace" attributeName="stroke-opacity" repeatCount="indefinite" keySplines="0.3, 0.61, 0.355, 1" dur="1.8s" restart="always" keyTimes="0; 1" begin="-0.9s">
		</animate>
	</circle>
</g>
</svg>
